<svg width="80" height="80" viewBox="0 0 80 80" fill="none" xmlns="http://www.w3.org/2000/svg">
  <circle cx="40" cy="40" r="40" fill="#7B61FF" opacity="0.1"/>
  <circle cx="40" cy="40" r="36" fill="#7B61FF" opacity="0.1"/>
  
  <!-- Head -->
  <circle cx="40" cy="34" r="18" fill="#E4B69B"/>
  
  <!-- Hair -->
  <path d="M25 28C25 20.268 31.268 14 39 14H41C48.732 14 55 20.268 55 28V34H25V28Z" fill="#1A1A2E"/>
  <path d="M25 34V36C25 40 29 42 29 42C29 42 29 36 32 36C35 36 35 40 35 40C35 40 35 34 40 34C45 34 45 40 45 40C45 40 45 36 48 36C51 36 51 42 51 42C51 42 55 40 55 36V34H25Z" fill="#1A1A2E"/>
  
  <!-- Face -->
  <circle cx="34" cy="32" r="1.5" fill="#1A1A2E"/>
  <circle cx="46" cy="32" r="1.5" fill="#1A1A2E"/>
  <path d="M36 38H44" stroke="#1A1A2E" stroke-width="1.5" stroke-linecap="round"/>
  
  <!-- Glasses -->
  <rect x="30" y="30" width="8" height="5" rx="2.5" stroke="#7B61FF" stroke-width="1"/>
  <rect x="42" y="30" width="8" height="5" rx="2.5" stroke="#7B61FF" stroke-width="1"/>
  <path d="M38 32.5H42" stroke="#7B61FF" stroke-width="1"/>
  
  <!-- Neck -->
  <rect x="36" y="52" width="8" height="8" fill="#E4B69B"/>
  
  <!-- Body -->
  <path d="M26 60C26 56.6863 28.6863 54 32 54H48C51.3137 54 54 56.6863 54 60V70H26V60Z" fill="#00CC88"/>
  
  <!-- Developer Elements -->
  <rect x="34" y="58" width="12" height="8" rx="1" fill="white"/>
  <path d="M37 62L39 64L37 66" stroke="#00CC88" stroke-width="1" stroke-linecap="round" stroke-linejoin="round"/>
  <path d="M43 62L41 64L43 66" stroke="#00CC88" stroke-width="1" stroke-linecap="round" stroke-linejoin="round"/>
</svg> 