<svg width="80" height="80" viewBox="0 0 80 80" fill="none" xmlns="http://www.w3.org/2000/svg">
  <circle cx="40" cy="40" r="40" fill="#FF5E7D" opacity="0.1"/>
  <circle cx="40" cy="40" r="36" fill="#FF5E7D" opacity="0.1"/>
  
  <!-- Head -->
  <circle cx="40" cy="34" r="18" fill="#FFC2D1"/>
  
  <!-- Hair -->
  <path d="M22 30C22 22.268 28.268 16 36 16H44C51.732 16 58 22.268 58 30V38C58 38 58 42 54 42C50 42 52 34 46 34C40 34 40 42 40 42C40 42 40 34 34 34C28 34 30 42 26 42C22 42 22 38 22 38V30Z" fill="#7B61FF"/>
  
  <!-- Face -->
  <circle cx="33" cy="32" r="2" fill="#1A1A2E"/>
  <circle cx="47" cy="32" r="2" fill="#1A1A2E"/>
  <path d="M36 38H44" stroke="#1A1A2E" stroke-width="2" stroke-linecap="round"/>
  
  <!-- Neck -->
  <rect x="36" y="52" width="8" height="8" fill="#FFC2D1"/>
  
  <!-- Body -->
  <path d="M26 60C26 56.6863 28.6863 54 32 54H48C51.3137 54 54 56.6863 54 60V70H26V60Z" fill="#33BFFF"/>
  
  <!-- College Elements -->
  <rect x="36" y="54" width="8" height="6" fill="white"/>
  <path d="M36 57H44" stroke="#33BFFF" stroke-width="1" stroke-linecap="round"/>
  <path d="M36 55H44" stroke="#33BFFF" stroke-width="1" stroke-linecap="round"/>
  <path d="M36 59H44" stroke="#33BFFF" stroke-width="1" stroke-linecap="round"/>
</svg> 