<svg width="80" height="80" viewBox="0 0 80 80" fill="none" xmlns="http://www.w3.org/2000/svg">
  <circle cx="40" cy="40" r="40" fill="#33BFFF" opacity="0.1"/>
  <circle cx="40" cy="40" r="36" fill="#33BFFF" opacity="0.1"/>
  
  <!-- Head -->
  <circle cx="40" cy="34" r="18" fill="#FFD7B5"/>
  
  <!-- Hair -->
  <path d="M22 25C22 20.5817 25.5817 17 30 17H50C54.4183 17 58 20.5817 58 25V34C58 34 58 36 56 38C54 40 50 35 50 35C50 35 54 30 50 27C46 24 42 28 42 28C42 28 38 24 34 27C30 30 34 35 34 35C34 35 30 40 28 38C26 36 22 34 22 34V25Z" fill="#8B572A"/>
  <path d="M30 22C30 22 34 22 40 22C46 22 50 22 50 22" stroke="#8B572A" stroke-width="3" stroke-linecap="round"/>
  
  <!-- Face -->
  <path d="M33 30C33 30 34 28 36 30" stroke="#1A1A2E" stroke-width="1" stroke-linecap="round"/>
  <path d="M47 30C47 30 46 28 44 30" stroke="#1A1A2E" stroke-width="1" stroke-linecap="round"/>
  <circle cx="34" cy="32" r="1.5" fill="#1A1A2E"/>
  <circle cx="46" cy="32" r="1.5" fill="#1A1A2E"/>
  <path d="M36 39C36 39 38 42 40 42C42 42 44 39 44 39" stroke="#1A1A2E" stroke-width="1.5" stroke-linecap="round"/>
  
  <!-- Neck -->
  <rect x="36" y="52" width="8" height="8" fill="#FFD7B5"/>
  
  <!-- Body -->
  <path d="M25 70V64C25 58.4772 29.4772 54 35 54H45C50.5228 54 55 58.4772 55 64V70H25Z" fill="#FF5E7D"/>
  
  <!-- Accessories -->
  <path d="M36 55C36 55 36 60 40 60C44 60 44 55 44 55" stroke="white" stroke-width="2" stroke-linecap="round"/>
  <circle cx="40" cy="63" r="2" fill="white"/>
  
  <!-- Business Elements -->
  <rect x="37" y="60" width="6" height="8" fill="white"/>
  <path d="M37 62H43" stroke="#FF5E7D" stroke-width="1" stroke-linecap="round"/>
  <path d="M37 64H43" stroke="#FF5E7D" stroke-width="1" stroke-linecap="round"/>
  <path d="M37 66H43" stroke="#FF5E7D" stroke-width="1" stroke-linecap="round"/>
</svg> 