<svg width="64" height="64" viewBox="0 0 64 64" fill="none" xmlns="http://www.w3.org/2000/svg">
  <circle cx="32" cy="32" r="30" fill="white"/>
  
  <!-- Map Grid -->
  <path d="M8 16H56" stroke="#E1E8ED" stroke-width="1"/>
  <path d="M8 24H56" stroke="#E1E8ED" stroke-width="1"/>
  <path d="M8 32H56" stroke="#E1E8ED" stroke-width="1"/>
  <path d="M8 40H56" stroke="#E1E8ED" stroke-width="1"/>
  <path d="M8 48H56" stroke="#E1E8ED" stroke-width="1"/>
  
  <path d="M16 8V56" stroke="#E1E8ED" stroke-width="1"/>
  <path d="M24 8V56" stroke="#E1E8ED" stroke-width="1"/>
  <path d="M32 8V56" stroke="#E1E8ED" stroke-width="1"/>
  <path d="M40 8V56" stroke="#E1E8ED" stroke-width="1"/>
  <path d="M48 8V56" stroke="#E1E8ED" stroke-width="1"/>
  
  <!-- Route Path -->
  <path d="M16 48L24 40L32 48L40 40L48 24" stroke="#33BFFF" stroke-width="4" stroke-linecap="round" stroke-linejoin="round"/>
  
  <!-- Starting Point -->
  <circle cx="16" cy="48" r="6" fill="#33BFFF"/>
  <circle cx="16" cy="48" r="3" fill="white"/>
  
  <!-- Destination (Midpoint) -->
  <path d="M48 24L48 14C48 11.7909 49.7909 10 52 10H52C54.2091 10 56 11.7909 56 14V14C56 16.2091 54.2091 18 52 18H48V24Z" fill="#FF5E7D"/>
  <circle cx="52" cy="14" r="2" fill="white"/>
  
  <!-- Direction Arrows -->
  <path d="M24 34L24 40L32 48" stroke="#7B61FF" stroke-width="2" stroke-linecap="round" stroke-linejoin="round"/>
  <path d="M24 34L18 28" stroke="#7B61FF" stroke-width="2" stroke-linecap="round" stroke-linejoin="round"/>
  <path d="M42 36L40 40L32 48" stroke="#7B61FF" stroke-width="2" stroke-linecap="round" stroke-linejoin="round"/>
  <path d="M42 36L46 32" stroke="#7B61FF" stroke-width="2" stroke-linecap="round" stroke-linejoin="round"/>
  
  <!-- Navigation Elements -->
  <path d="M16 16H20C22.2091 16 24 17.7909 24 20V20C24 22.2091 22.2091 24 20 24H16V16Z" fill="#FFA41B"/>
  <path d="M16 16V24" stroke="#FFA41B" stroke-width="2"/>
  <path d="M19 18L22 20L19 22" stroke="white" stroke-width="2" stroke-linecap="round" stroke-linejoin="round"/>
  
  <path d="M36 16L42 20L36 24" fill="#00CC88"/>
  <path d="M36 16L42 20L36 24" stroke="#00CC88" stroke-width="2" stroke-linecap="round" stroke-linejoin="round"/>
  
  <!-- Compass -->
  <circle cx="52" cy="46" r="8" fill="#7B61FF" opacity="0.2"/>
  <circle cx="52" cy="46" r="8" stroke="#7B61FF" stroke-width="1"/>
  <path d="M52 38V42" stroke="#7B61FF" stroke-width="2" stroke-linecap="round"/>
  <path d="M52 50V54" stroke="#7B61FF" stroke-width="2" stroke-linecap="round"/>
  <path d="M44 46H48" stroke="#7B61FF" stroke-width="2" stroke-linecap="round"/>
  <path d="M56 46H60" stroke="#7B61FF" stroke-width="2" stroke-linecap="round"/>
  <path d="M52 43L49 48H55L52 43Z" fill="#7B61FF"/>
</svg> 