<?xml version="1.0" encoding="UTF-8"?>
<svg width="64" height="64" viewBox="0 0 64 64" fill="none" xmlns="http://www.w3.org/2000/svg">
    <!-- Center Person -->
    <circle cx="32" cy="20" r="8" fill="#FF6B6B"/>
    <path d="M32 32C24 32 18 38 18 44C18 46 20 48 22 48H42C44 48 46 46 46 44C46 38 40 32 32 32Z" fill="#FF6B6B"/>
    
    <!-- Left Person -->
    <circle cx="16" cy="24" r="6" fill="#4ECDC4"/>
    <path d="M16 32C10 32 6 36 6 40C6 42 8 44 10 44H22C20 40 20 36 22 32H16Z" fill="#4ECDC4"/>
    
    <!-- Right Person -->
    <circle cx="48" cy="24" r="6" fill="#4ECDC4"/>
    <path d="M48 32C54 32 58 36 58 40C58 42 56 44 54 44H42C44 40 44 36 42 32H48Z" fill="#4ECDC4"/>
</svg> 