<svg width="64" height="64" viewBox="0 0 64 64" fill="none" xmlns="http://www.w3.org/2000/svg">
  <circle cx="32" cy="18" r="10" fill="white"/>
  <circle cx="16" cy="26" r="8" fill="white"/>
  <circle cx="48" cy="26" r="8" fill="white"/>
  <path d="M44 42C44 37.5817 40.4183 34 36 34H28C23.5817 34 20 37.5817 20 42V50C20 52.2091 21.7909 54 24 54H40C42.2091 54 44 52.2091 44 50V42Z" fill="white"/>
  <path d="M14 46C14 41.5817 10.4183 38 6 38H6C3.79086 38 2 39.7909 2 42V46C2 48.2091 3.79086 50 6 50H10C12.2091 50 14 48.2091 14 46V46Z" fill="white"/>
  <path d="M62 46C62 41.5817 58.4183 38 54 38H54C51.7909 38 50 39.7909 50 42V46C50 48.2091 51.7909 50 54 50H58C60.2091 50 62 48.2091 62 46V46Z" fill="white"/>
  <path d="M32 8C26.4772 8 22 12.4772 22 18C22 23.5228 26.4772 28 32 28C37.5228 28 42 23.5228 42 18C42 12.4772 37.5228 8 32 8ZM32 26C27.5817 26 24 22.4183 24 18C24 13.5817 27.5817 10 32 10C36.4183 10 40 13.5817 40 18C40 22.4183 36.4183 26 32 26Z" fill="#FF5E7D"/>
  <path d="M16 18C11.5817 18 8 21.5817 8 26C8 30.4183 11.5817 34 16 34C17.4747 34 18.8506 33.6318 20.0491 32.9917C19.0823 31.5529 18.3826 29.9371 18.0073 28.2111C17.3655 28.7109 16.5933 29 15.75 29C14.0931 29 12.75 27.6569 12.75 26C12.75 24.3431 14.0931 23 15.75 23C16.5933 23 17.3655 23.2891 18.0073 23.7889C18.3826 22.0629 19.0823 20.4471 20.0491 19.0083C18.8506 18.3682 17.4747 18 16 18Z" fill="#FF5E7D"/>
  <path d="M48 18C43.5817 18 40 21.5817 40 26C40 30.4183 43.5817 34 48 34C49.4747 34 50.8506 33.6318 52.0491 32.9917C51.0823 31.5529 50.3826 29.9371 50.0073 28.2111C49.3655 28.7109 48.5933 29 47.75 29C46.0931 29 44.75 27.6569 44.75 26C44.75 24.3431 46.0931 23 47.75 23C48.5933 23 49.3655 23.2891 50.0073 23.7889C50.3826 22.0629 51.0823 20.4471 52.0491 19.0083C50.8506 18.3682 49.4747 18 48 18Z" fill="#FF5E7D"/>
  <path d="M36 36H28C23.5817 36 20 39.5817 20 44V48C20 50.2091 21.7909 52 24 52H40C42.2091 52 44 50.2091 44 48V44C44 39.5817 40.4183 36 36 36ZM42 48C42 49.1046 41.1046 50 40 50H24C22.8954 50 22 49.1046 22 48V44C22 40.6863 24.6863 38 28 38H36C39.3137 38 42 40.6863 42 44V48Z" fill="#FF5E7D"/>
  <path d="M12 40H6C3.79086 40 2 41.7909 2 44V46C2 48.2091 3.79086 50 6 50H12C14.2091 50 16 48.2091 16 46V44C16 41.7909 14.2091 40 12 40ZM14 46C14 47.1046 13.1046 48 12 48H6C4.89543 48 4 47.1046 4 46V44C4 42.8954 4.89543 42 6 42H12C13.1046 42 14 42.8954 14 44V46Z" fill="#FF5E7D"/>
  <path d="M58 40H52C49.7909 40 48 41.7909 48 44V46C48 48.2091 49.7909 50 52 50H58C60.2091 50 62 48.2091 62 46V44C62 41.7909 60.2091 40 58 40ZM60 46C60 47.1046 59.1046 48 58 48H52C50.8954 48 50 47.1046 50 46V44C50 42.8954 50.8954 42 52 42H58C59.1046 42 60 42.8954 60 44V46Z" fill="#FF5E7D"/>
  <path d="M36 30L32 34L28 30" stroke="#FF5E7D" stroke-width="2" stroke-linecap="round" stroke-linejoin="round"/>
  <path d="M26 44H38" stroke="#FF5E7D" stroke-width="2" stroke-linecap="round"/>
</svg> 