<?xml version="1.0" encoding="UTF-8"?>
<svg width="800" height="600" viewBox="0 0 800 600" fill="none" xmlns="http://www.w3.org/2000/svg">
    <!-- Background Map Grid -->
    <path d="M0 0 L800 0 L800 600 L0 600 Z" fill="#F8F9FA"/>
    <path d="M0 0 L800 600" stroke="#E9ECEF" stroke-width="1"/>
    <path d="M800 0 L0 600" stroke="#E9ECEF" stroke-width="1"/>
    
    <!-- Map Points -->
    <circle cx="200" cy="150" r="20" fill="#FF6B6B"/>
    <circle cx="600" cy="200" r="20" fill="#FF6B6B"/>
    <circle cx="150" cy="450" r="20" fill="#FF6B6B"/>
    <circle cx="650" cy="500" r="20" fill="#FF6B6B"/>
    
    <!-- Connection Lines -->
    <path d="M200 150 L400 300" stroke="#4ECDC4" stroke-width="4" stroke-dasharray="8 4"/>
    <path d="M600 200 L400 300" stroke="#4ECDC4" stroke-width="4" stroke-dasharray="8 4"/>
    <path d="M150 450 L400 300" stroke="#4ECDC4" stroke-width="4" stroke-dasharray="8 4"/>
    <path d="M650 500 L400 300" stroke="#4ECDC4" stroke-width="4" stroke-dasharray="8 4"/>
    
    <!-- Center Point -->
    <circle cx="400" cy="300" r="30" fill="#4ECDC4"/>
    <circle cx="400" cy="300" r="15" fill="#FFFFFF"/>
    
    <!-- Location Icons -->
    <g transform="translate(185,135)">
        <path d="M15 0C6.75 0 0 6.75 0 15C0 26.25 15 45 15 45C15 45 30 26.25 30 15C30 6.75 23.25 0 15 0ZM15 20C12.25 20 10 17.75 10 15C10 12.25 12.25 10 15 10C17.75 10 20 12.25 20 15C20 17.75 17.75 20 15 20Z" fill="#FFFFFF"/>
    </g>
    <g transform="translate(585,185)">
        <path d="M15 0C6.75 0 0 6.75 0 15C0 26.25 15 45 15 45C15 45 30 26.25 30 15C30 6.75 23.25 0 15 0ZM15 20C12.25 20 10 17.75 10 15C10 12.25 12.25 10 15 10C17.75 10 20 12.25 20 15C20 17.75 17.75 20 15 20Z" fill="#FFFFFF"/>
    </g>
    <g transform="translate(135,435)">
        <path d="M15 0C6.75 0 0 6.75 0 15C0 26.25 15 45 15 45C15 45 30 26.25 30 15C30 6.75 23.25 0 15 0ZM15 20C12.25 20 10 17.75 10 15C10 12.25 12.25 10 15 10C17.75 10 20 12.25 20 15C20 17.75 17.75 20 15 20Z" fill="#FFFFFF"/>
    </g>
    <g transform="translate(635,485)">
        <path d="M15 0C6.75 0 0 6.75 0 15C0 26.25 15 45 15 45C15 45 30 26.25 30 15C30 6.75 23.25 0 15 0ZM15 20C12.25 20 10 17.75 10 15C10 12.25 12.25 10 15 10C17.75 10 20 12.25 20 15C20 17.75 17.75 20 15 20Z" fill="#FFFFFF"/>
    </g>
</svg> 