<svg width="64" height="64" viewBox="0 0 64 64" fill="none" xmlns="http://www.w3.org/2000/svg">
  <circle cx="32" cy="32" r="30" fill="white"/>
  
  <!-- Central Midpoint -->
  <circle cx="32" cy="32" r="6" fill="#FF5E7D"/>
  
  <!-- POI Types -->
  <!-- Restaurant -->
  <path d="M16 20C16 16.6863 18.6863 14 22 14H24C25.1046 14 26 14.8954 26 16V24C26 25.1046 25.1046 26 24 26H22C18.6863 26 16 23.3137 16 20Z" fill="#FFA41B"/>
  <rect x="18" y="16" width="6" height="2" rx="1" fill="white"/>
  <rect x="18" y="20" width="6" height="2" rx="1" fill="white"/>
  
  <!-- Coffee Shop -->
  <path d="M50 18C50 15.7909 51.7909 14 54 14H56C57.1046 14 58 14.8954 58 16V20C58 22.2091 56.2091 24 54 24H50V18Z" fill="#33BFFF"/>
  <path d="M48 18H50V24H48V18Z" fill="#33BFFF"/>
  <rect x="48" y="24" width="10" height="2" rx="1" fill="#33BFFF"/>
  <path d="M52 18C52 16.8954 52.8954 16 54 16V16C55.1046 16 56 16.8954 56 18V18H52V18Z" fill="white"/>
  
  <!-- Park -->
  <circle cx="14" cy="46" r="6" fill="#00CC88"/>
  <path d="M11 46C11 44.3431 12.3431 43 14 43V43C15.6569 43 17 44.3431 17 46H11Z" fill="white"/>
  <path d="M14 43V40" stroke="#00CC88" stroke-width="2" stroke-linecap="round"/>
  <path d="M11 41L14 43L17 41" stroke="#00CC88" stroke-width="2" stroke-linecap="round" stroke-linejoin="round"/>
  
  <!-- Movie Theater -->
  <rect x="38" y="44" width="14" height="10" rx="2" fill="#7B61FF"/>
  <rect x="40" y="46" width="10" height="6" rx="1" fill="white"/>
  <path d="M42 46V52" stroke="#7B61FF" stroke-width="1"/>
  <path d="M44 46V52" stroke="#7B61FF" stroke-width="1"/>
  <path d="M46 46V52" stroke="#7B61FF" stroke-width="1"/>
  <path d="M48 46V52" stroke="#7B61FF" stroke-width="1"/>
  <rect x="36" y="42" width="18" height="2" rx="1" fill="#7B61FF"/>
  
  <!-- Radius Circle -->
  <circle cx="32" cy="32" r="24" stroke="#33BFFF" stroke-width="2" stroke-dasharray="4 4"/>
  
  <!-- Connection Lines -->
  <path d="M32 32L22 20" stroke="#FF5E7D" stroke-width="1"/>
  <path d="M32 32L54 18" stroke="#FF5E7D" stroke-width="1"/>
  <path d="M32 32L14 46" stroke="#FF5E7D" stroke-width="1"/>
  <path d="M32 32L45 49" stroke="#FF5E7D" stroke-width="1"/>
  
  <!-- Search/Discovery Element -->
  <circle cx="32" cy="20" r="8" fill="white" stroke="#FF5E7D" stroke-width="2"/>
  <path d="M38 26L42 30" stroke="#FF5E7D" stroke-width="2" stroke-linecap="round"/>
  <circle cx="32" cy="20" r="5" stroke="#FF5E7D" stroke-width="2"/>
</svg> 