<svg width="200" height="150" viewBox="0 0 200 150" fill="none" xmlns="http://www.w3.org/2000/svg">
  <!-- Background -->
  <rect width="200" height="150" rx="10" fill="#F8F9FA"/>
  
  <!-- Map Background -->
  <rect x="20" y="20" width="160" height="110" rx="10" fill="#FFFFFF"/>
  <rect x="20" y="20" width="160" height="110" rx="10" stroke="#E1E1E8" stroke-width="2"/>
  
  <!-- Map Grid -->
  <path d="M20 40H180" stroke="#E1E1E8" stroke-width="1"/>
  <path d="M20 60H180" stroke="#E1E1E8" stroke-width="1"/>
  <path d="M20 80H180" stroke="#E1E1E8" stroke-width="1"/>
  <path d="M20 100H180" stroke="#E1E1E8" stroke-width="1"/>
  
  <path d="M40 20V130" stroke="#E1E1E8" stroke-width="1"/>
  <path d="M60 20V130" stroke="#E1E1E8" stroke-width="1"/>
  <path d="M80 20V130" stroke="#E1E1E8" stroke-width="1"/>
  <path d="M100 20V130" stroke="#E1E1E8" stroke-width="1"/>
  <path d="M120 20V130" stroke="#E1E1E8" stroke-width="1"/>
  <path d="M140 20V130" stroke="#E1E1E8" stroke-width="1"/>
  <path d="M160 20V130" stroke="#E1E1E8" stroke-width="1"/>
  
  <!-- Location Points -->
  <!-- Person 1 -->
  <circle cx="40" cy="40" r="6" fill="#FF5E7D"/>
  <circle cx="40" cy="40" r="10" stroke="#FF5E7D" stroke-width="1" stroke-dasharray="2 2"/>
  
  <!-- Person 2 -->
  <circle cx="140" cy="50" r="6" fill="#33BFFF"/>
  <circle cx="140" cy="50" r="10" stroke="#33BFFF" stroke-width="1" stroke-dasharray="2 2"/>
  
  <!-- Person 3 -->
  <circle cx="60" cy="100" r="6" fill="#7B61FF"/>
  <circle cx="60" cy="100" r="10" stroke="#7B61FF" stroke-width="1" stroke-dasharray="2 2"/>
  
  <!-- Person 4 -->
  <circle cx="160" cy="110" r="6" fill="#FFA41B"/>
  <circle cx="160" cy="110" r="10" stroke="#FFA41B" stroke-width="1" stroke-dasharray="2 2"/>
  
  <!-- Connection Lines -->
  <path d="M40 40L100 75" stroke="#FF5E7D" stroke-width="1" stroke-dasharray="4 2"/>
  <path d="M140 50L100 75" stroke="#33BFFF" stroke-width="1" stroke-dasharray="4 2"/>
  <path d="M60 100L100 75" stroke="#7B61FF" stroke-width="1" stroke-dasharray="4 2"/>
  <path d="M160 110L100 75" stroke="#FFA41B" stroke-width="1" stroke-dasharray="4 2"/>
  
  <!-- Midpoint -->
  <circle cx="100" cy="75" r="25" fill="#FF5E7D" opacity="0.1"/>
  <circle cx="100" cy="75" r="15" fill="#FF5E7D" opacity="0.2"/>
  <circle cx="100" cy="75" r="8" fill="#FF5E7D"/>
  <path d="M100 67L100 57" stroke="#FF5E7D" stroke-width="2" stroke-linecap="round"/>
  <circle cx="100" cy="62" r="2" fill="white"/>
  
  <!-- Calculation Effect -->
  <path d="M100 30C100 28.3431 101.343 27 103 27H155C156.657 27 158 28.3431 158 30V34C158 35.6569 156.657 37 155 37H103C101.343 37 100 35.6569 100 34V30Z" fill="#F1F3F5"/>
  <path d="M105 32L110 32" stroke="#FF5E7D" stroke-width="1" stroke-linecap="round"/>
  <path d="M115 32L125 32" stroke="#33BFFF" stroke-width="1" stroke-linecap="round"/>
  <path d="M130 32L135 32" stroke="#7B61FF" stroke-width="1" stroke-linecap="round"/>
  <path d="M140 32L150 32" stroke="#FFA41B" stroke-width="1" stroke-linecap="round"/>
  <path d="M153 32H157" stroke="#1A1A2E" stroke-width="2" stroke-linecap="round"/>
  <circle cx="153" cy="32" r="1" fill="#1A1A2E"/>
  <circle cx="157" cy="32" r="1" fill="#1A1A2E"/>
  
  <!-- Distance Markers -->
  <path d="M40 55C40 53.8954 40.8954 53 42 53H68C69.1046 53 70 53.8954 70 55V55C70 56.1046 69.1046 57 68 57H42C40.8954 57 40 56.1046 40 55V55Z" fill="white"/>
  <path d="M40 55H70" stroke="#FF5E7D" stroke-width="1" stroke-dasharray="1 1"/>
  <path d="M45 55L65 55" stroke="#FF5E7D" stroke-width="1"/>
  <path d="M50 53L50 57" stroke="#FF5E7D" stroke-width="1"/>
  <path d="M60 53L60 57" stroke="#FF5E7D" stroke-width="1"/>
  
  <path d="M115 60C115 58.8954 115.895 58 117 58H143C144.105 58 145 58.8954 145 60V60C145 61.1046 144.105 62 143 62H117C115.895 62 115 61.1046 115 60V60Z" fill="white"/>
  <path d="M115 60H145" stroke="#33BFFF" stroke-width="1" stroke-dasharray="1 1"/>
  <path d="M120 60L140 60" stroke="#33BFFF" stroke-width="1"/>
  <path d="M125 58L125 62" stroke="#33BFFF" stroke-width="1"/>
  <path d="M135 58L135 62" stroke="#33BFFF" stroke-width="1"/>
  
  <!-- Midpoint Label -->
  <rect x="75" y="95" width="50" height="20" rx="10" fill="white"/>
  <rect x="75" y="95" width="50" height="20" rx="10" stroke="#FF5E7D" stroke-width="2"/>
  <path d="M85 105H115" stroke="#FF5E7D" stroke-width="2" stroke-linecap="round"/>
  <circle cx="100" cy="105" r="4" fill="#FF5E7D"/>
  <circle cx="100" cy="105" r="2" fill="white"/>
  
  <!-- Calculate Label -->
  <circle cx="35" cy="120" r="15" fill="#33BFFF"/>
  <path d="M30 120H40" stroke="white" stroke-width="2" stroke-linecap="round"/>
  <path d="M35 115V125" stroke="white" stroke-width="2" stroke-linecap="round"/>
  <path d="M55 120H165" stroke="#33BFFF" stroke-width="2" stroke-linecap="round"/>
</svg> 