<svg width="200" height="150" viewBox="0 0 200 150" fill="none" xmlns="http://www.w3.org/2000/svg">
  <!-- Background -->
  <rect width="200" height="150" rx="10" fill="#F8F9FA"/>
  
  <!-- Map Background -->
  <rect x="20" y="20" width="160" height="110" rx="10" fill="#FFFFFF"/>
  <rect x="20" y="20" width="160" height="110" rx="10" stroke="#E1E1E8" stroke-width="2"/>
  
  <!-- Map Grid -->
  <path d="M20 40H180" stroke="#E1E1E8" stroke-width="1"/>
  <path d="M20 60H180" stroke="#E1E1E8" stroke-width="1"/>
  <path d="M20 80H180" stroke="#E1E1E8" stroke-width="1"/>
  <path d="M20 100H180" stroke="#E1E1E8" stroke-width="1"/>
  
  <path d="M40 20V130" stroke="#E1E1E8" stroke-width="1"/>
  <path d="M60 20V130" stroke="#E1E1E8" stroke-width="1"/>
  <path d="M80 20V130" stroke="#E1E1E8" stroke-width="1"/>
  <path d="M100 20V130" stroke="#E1E1E8" stroke-width="1"/>
  <path d="M120 20V130" stroke="#E1E1E8" stroke-width="1"/>
  <path d="M140 20V130" stroke="#E1E1E8" stroke-width="1"/>
  <path d="M160 20V130" stroke="#E1E1E8" stroke-width="1"/>
  
  <!-- Location Points -->
  <!-- Person 1 -->
  <circle cx="40" cy="40" r="12" fill="#FF5E7D" opacity="0.2"/>
  <path d="M40 28C34.4772 28 30 32.4772 30 38C30 43.5228 40 52 40 52C40 52 50 43.5228 50 38C50 32.4772 45.5228 28 40 28Z" fill="#FF5E7D"/>
  <circle cx="40" cy="38" r="3" fill="white"/>
  
  <!-- Person 2 -->
  <circle cx="140" cy="50" r="12" fill="#33BFFF" opacity="0.2"/>
  <path d="M140 38C134.477 38 130 42.4772 130 48C130 53.5228 140 62 140 62C140 62 150 53.5228 150 48C150 42.4772 145.523 38 140 38Z" fill="#33BFFF"/>
  <circle cx="140" cy="48" r="3" fill="white"/>
  
  <!-- Person 3 -->
  <circle cx="60" cy="100" r="12" fill="#7B61FF" opacity="0.2"/>
  <path d="M60 88C54.4772 88 50 92.4772 50 98C50 103.523 60 112 60 112C60 112 70 103.523 70 98C70 92.4772 65.5228 88 60 88Z" fill="#7B61FF"/>
  <circle cx="60" cy="98" r="3" fill="white"/>
  
  <!-- Person 4 -->
  <circle cx="160" cy="110" r="12" fill="#FFA41B" opacity="0.2"/>
  <path d="M160 98C154.477 98 150 102.477 150 108C150 113.523 160 122 160 122C160 122 170 113.523 170 108C170 102.477 165.523 98 160 98Z" fill="#FFA41B"/>
  <circle cx="160" cy="108" r="3" fill="white"/>
  
  <!-- Location Pulses -->
  <circle cx="40" cy="38" r="18" stroke="#FF5E7D" stroke-width="1" stroke-dasharray="2 2" opacity="0.5"/>
  <circle cx="140" cy="48" r="18" stroke="#33BFFF" stroke-width="1" stroke-dasharray="2 2" opacity="0.5"/>
  <circle cx="60" cy="98" r="18" stroke="#7B61FF" stroke-width="1" stroke-dasharray="2 2" opacity="0.5"/>
  <circle cx="160" cy="108" r="18" stroke="#FFA41B" stroke-width="1" stroke-dasharray="2 2" opacity="0.5"/>
  
  <!-- User Avatars -->
  <circle cx="40" cy="40" r="8" fill="#FF5E7D" opacity="0.8"/>
  <circle cx="140" cy="50" r="8" fill="#33BFFF" opacity="0.8"/>
  <circle cx="60" cy="100" r="8" fill="#7B61FF" opacity="0.8"/>
  <circle cx="160" cy="110" r="8" fill="#FFA41B" opacity="0.8"/>
  
  <!-- Map Control UI -->
  <rect x="30" y="30" width="40" height="8" rx="4" fill="white"/>
  <rect x="30" y="30" width="40" height="8" rx="4" stroke="#E1E1E8" stroke-width="1"/>
  <circle cx="36" cy="34" r="2" fill="#FF5E7D"/>
  <path d="M42 34H62" stroke="#1A1A2E" stroke-width="1" stroke-linecap="round"/>
  
  <!-- Location Sharing Label -->
  <circle cx="100" cy="120" r="15" fill="#7B61FF"/>
  <path d="M100 110V130" stroke="white" stroke-width="2" stroke-linecap="round"/>
  <circle cx="100" cy="115" r="2" fill="white"/>
  <path d="M95 125L100 120L105 125" stroke="white" stroke-width="2" stroke-linecap="round" stroke-linejoin="round"/>
</svg> 