<svg width="200" height="150" viewBox="0 0 200 150" fill="none" xmlns="http://www.w3.org/2000/svg">
  <!-- Background -->
  <rect width="200" height="150" rx="10" fill="#F8F9FA"/>
  
  <!-- Phone Outline -->
  <rect x="70" y="15" width="60" height="120" rx="10" fill="white"/>
  <rect x="70" y="15" width="60" height="120" rx="10" stroke="#E1E1E8" stroke-width="2"/>
  <rect x="90" y="25" width="20" height="5" rx="2.5" fill="#E1E1E8"/>
  <circle cx="100" cy="125" r="5" stroke="#E1E1E8" stroke-width="2"/>
  
  <!-- App Screen -->
  <rect x="75" y="35" width="50" height="80" rx="5" fill="#FFFFFF"/>
  
  <!-- App Header -->
  <rect x="75" y="35" width="50" height="12" rx="5" fill="#FF5E7D"/>
  <circle cx="85" cy="41" r="4" fill="white"/>
  <path d="M85 39V43" stroke="#FF5E7D" stroke-width="1.5" stroke-linecap="round"/>
  <path d="M83 41H87" stroke="#FF5E7D" stroke-width="1.5" stroke-linecap="round"/>
  <path d="M95 39H115" stroke="white" stroke-width="2" stroke-linecap="round"/>
  <path d="M95 43H105" stroke="white" stroke-width="2" stroke-linecap="round"/>
  
  <!-- Create Group Form -->
  <rect x="80" y="55" width="40" height="8" rx="2" fill="#F1F3F5"/>
  <path d="M82 59H90" stroke="#1A1A2E" stroke-width="1.5" stroke-linecap="round"/>
  
  <rect x="80" y="70" width="40" height="8" rx="2" fill="#F1F3F5"/>
  <path d="M82 74H95" stroke="#1A1A2E" stroke-width="1.5" stroke-linecap="round"/>
  
  <rect x="80" y="85" width="40" height="8" rx="2" fill="#F1F3F5"/>
  <path d="M82 89H87" stroke="#1A1A2E" stroke-width="1.5" stroke-linecap="round"/>
  
  <rect x="90" y="100" width="20" height="8" rx="4" fill="#FF5E7D"/>
  <path d="M95 104H105" stroke="white" stroke-width="1.5" stroke-linecap="round"/>
  
  <!-- People Icons -->
  <circle cx="40" cy="60" r="15" fill="#33BFFF" opacity="0.2"/>
  <circle cx="40" cy="55" r="6" fill="#33BFFF"/>
  <path d="M32 70C32 65.5817 35.5817 62 40 62V62C44.4183 62 48 65.5817 48 70V70H32V70Z" fill="#33BFFF"/>
  
  <circle cx="155" cy="50" r="12" fill="#7B61FF" opacity="0.2"/>
  <circle cx="155" cy="46" r="5" fill="#7B61FF"/>
  <path d="M148 58C148 54.6863 151.134 52 155 52V52C158.866 52 162 54.6863 162 58V58H148V58Z" fill="#7B61FF"/>
  
  <circle cx="160" cy="90" r="12" fill="#FF5E7D" opacity="0.2"/>
  <circle cx="160" cy="86" r="5" fill="#FF5E7D"/>
  <path d="M153 98C153 94.6863 156.134 92 160 92V92C163.866 92 167 94.6863 167 98V98H153V98Z" fill="#FF5E7D"/>
  
  <!-- Connection Lines -->
  <path d="M55 65L70 65" stroke="#33BFFF" stroke-width="2" stroke-dasharray="2 2"/>
  <path d="M143 50L130 50" stroke="#7B61FF" stroke-width="2" stroke-dasharray="2 2"/>
  <path d="M148 90L130 90" stroke="#FF5E7D" stroke-width="2" stroke-dasharray="2 2"/>
  
  <!-- Create Group Label -->
  <circle cx="30" cy="115" r="15" fill="#FF5E7D"/>
  <path d="M25 115H35" stroke="white" stroke-width="2" stroke-linecap="round"/>
  <path d="M30 110V120" stroke="white" stroke-width="2" stroke-linecap="round"/>
  <path d="M50 115H125" stroke="#FF5E7D" stroke-width="2" stroke-linecap="round"/>
  <path d="M130 115H170" stroke="#FF5E7D" stroke-width="2" stroke-linecap="round"/>
</svg> 