<svg width="200" height="150" viewBox="0 0 200 150" fill="none" xmlns="http://www.w3.org/2000/svg">
  <!-- Background -->
  <rect width="200" height="150" rx="10" fill="#F8F9FA"/>
  
  <!-- Map Background -->
  <rect x="20" y="20" width="90" height="110" rx="10" fill="#FFFFFF"/>
  <rect x="20" y="20" width="90" height="110" rx="10" stroke="#E1E1E8" stroke-width="2"/>
  
  <!-- Map Grid -->
  <path d="M20 40H110" stroke="#E1E1E8" stroke-width="1"/>
  <path d="M20 60H110" stroke="#E1E1E8" stroke-width="1"/>
  <path d="M20 80H110" stroke="#E1E1E8" stroke-width="1"/>
  <path d="M20 100H110" stroke="#E1E1E8" stroke-width="1"/>
  
  <path d="M40 20V130" stroke="#E1E1E8" stroke-width="1"/>
  <path d="M60 20V130" stroke="#E1E1E8" stroke-width="1"/>
  <path d="M80 20V130" stroke="#E1E1E8" stroke-width="1"/>
  <path d="M100 20V130" stroke="#E1E1E8" stroke-width="1"/>
  
  <!-- Midpoint -->
  <circle cx="65" cy="75" r="20" fill="#FF5E7D" opacity="0.1"/>
  <circle cx="65" cy="75" r="10" fill="#FF5E7D" opacity="0.2"/>
  <circle cx="65" cy="75" r="5" fill="#FF5E7D"/>
  
  <!-- POI Markers -->
  <!-- Restaurant -->
  <circle cx="75" cy="55" r="6" fill="#FFA41B"/>
  <path d="M75 51L75 59" stroke="white" stroke-width="1.5" stroke-linecap="round"/>
  <path d="M72 53L78 53" stroke="white" stroke-width="1.5" stroke-linecap="round"/>
  <path d="M72 57L78 57" stroke="white" stroke-width="1.5" stroke-linecap="round"/>
  
  <!-- Cafe -->
  <circle cx="50" cy="60" r="6" fill="#33BFFF"/>
  <path d="M47 58H53" stroke="white" stroke-width="1.5" stroke-linecap="round"/>
  <path d="M47 62L53 62" stroke="white" stroke-width="1.5" stroke-linecap="round"/>
  <path d="M50 58V56" stroke="white" stroke-width="1.5" stroke-linecap="round"/>
  
  <!-- Park -->
  <circle cx="85" cy="85" r="6" fill="#00CC88"/>
  <path d="M82 85H88" stroke="white" stroke-width="1.5" stroke-linecap="round"/>
  <path d="M85 82V88" stroke="white" stroke-width="1.5" stroke-linecap="round"/>
  <path d="M82 82L88 88" stroke="white" stroke-width="1.5" stroke-linecap="round"/>
  <path d="M88 82L82 88" stroke="white" stroke-width="1.5" stroke-linecap="round"/>
  
  <!-- Bar -->
  <circle cx="45" cy="90" r="6" fill="#7B61FF"/>
  <path d="M42 88L48 88" stroke="white" stroke-width="1.5" stroke-linecap="round"/>
  <path d="M42 92L48 92" stroke="white" stroke-width="1.5" stroke-linecap="round"/>
  
  <!-- Vote Interface -->
  <rect x="115" y="20" width="65" height="110" rx="10" fill="white"/>
  <rect x="115" y="20" width="65" height="110" rx="10" stroke="#E1E1E8" stroke-width="2"/>
  
  <!-- Header -->
  <rect x="115" y="20" width="65" height="15" rx="10" fill="#FF5E7D"/>
  <path d="M125 27.5H155" stroke="white" stroke-width="2" stroke-linecap="round"/>
  <path d="M165 27.5L170 27.5" stroke="white" stroke-width="2" stroke-linecap="round"/>
  
  <!-- POI List with Votes -->
  <!-- Item 1 - Restaurant -->
  <rect x="120" y="42" width="55" height="20" rx="5" fill="#F1F3F5"/>
  <circle cx="127" cy="52" r="4" fill="#FFA41B"/>
  <path d="M127 50V54" stroke="white" stroke-width="1" stroke-linecap="round"/>
  <path d="M125 52H129" stroke="white" stroke-width="1" stroke-linecap="round"/>
  <path d="M135 49H155" stroke="#1A1A2E" stroke-width="1.5" stroke-linecap="round"/>
  <path d="M135 55H145" stroke="#1A1A2E" stroke-width="1.5" stroke-linecap="round"/>
  
  <!-- Vote Count -->
  <rect x="160" y="44" width="10" height="16" rx="8" fill="#FF5E7D"/>
  <path d="M165 52L165 52" stroke="white" stroke-width="2" stroke-linecap="round"/>
  <path d="M165 54L165 54" stroke="white" stroke-width="2" stroke-linecap="round"/>
  <path d="M165 50L165 50" stroke="white" stroke-width="2" stroke-linecap="round"/>
  
  <!-- Item 2 - Cafe -->
  <rect x="120" y="67" width="55" height="20" rx="5" fill="#F1F3F5"/>
  <circle cx="127" cy="77" r="4" fill="#33BFFF"/>
  <path d="M125 77H129" stroke="white" stroke-width="1" stroke-linecap="round"/>
  <path d="M127 75V79" stroke="white" stroke-width="1" stroke-linecap="round"/>
  <path d="M135 74H150" stroke="#1A1A2E" stroke-width="1.5" stroke-linecap="round"/>
  <path d="M135 80H140" stroke="#1A1A2E" stroke-width="1.5" stroke-linecap="round"/>
  
  <!-- Vote Count -->
  <rect x="160" y="69" width="10" height="16" rx="8" fill="#FF5E7D"/>
  <path d="M165 77L165 77" stroke="white" stroke-width="2" stroke-linecap="round"/>
  <path d="M165 75L165 75" stroke="white" stroke-width="2" stroke-linecap="round"/>
  
  <!-- Item 3 - Park -->
  <rect x="120" y="92" width="55" height="20" rx="5" fill="#F1F3F5"/>
  <circle cx="127" cy="102" r="4" fill="#00CC88"/>
  <path d="M127 100V104" stroke="white" stroke-width="1" stroke-linecap="round"/>
  <path d="M125 102H129" stroke="white" stroke-width="1" stroke-linecap="round"/>
  <path d="M135 99H160" stroke="#1A1A2E" stroke-width="1.5" stroke-linecap="round"/>
  <path d="M135 105H150" stroke="#1A1A2E" stroke-width="1.5" stroke-linecap="round"/>
  
  <!-- Vote Count -->
  <rect x="160" y="94" width="10" height="16" rx="8" fill="#E1E1E8"/>
  <path d="M165 102L165 102" stroke="white" stroke-width="2" stroke-linecap="round"/>
  
  <!-- Meet Button -->
  <rect x="125" y="117" width="45" height="10" rx="5" fill="#FF5E7D"/>
  <path d="M135 122H160" stroke="white" stroke-width="2" stroke-linecap="round"/>
  <circle cx="132" cy="122" r="2" fill="white"/>
  <path d="M132 120V124" stroke="#FF5E7D" stroke-width="1" stroke-linecap="round"/>
  <path d="M130 122H134" stroke="#FF5E7D" stroke-width="1" stroke-linecap="round"/>
  
  <!-- Vote & Meet Label -->
  <circle cx="100" cy="125" r="10" fill="#FFA41B"/>
  <path d="M97 125H103" stroke="white" stroke-width="1.5" stroke-linecap="round"/>
  <path d="M100 122V128" stroke="white" stroke-width="1.5" stroke-linecap="round"/>
  
  <path d="M100 125L85 125" stroke="#FFA41B" stroke-width="2" stroke-linecap="round"/>
  <path d="M100 125L115 125" stroke="#FFA41B" stroke-width="2" stroke-linecap="round"/>
</svg> 