<svg width="200" height="150" viewBox="0 0 200 150" fill="none" xmlns="http://www.w3.org/2000/svg">
  <!-- Background -->
  <rect width="200" height="150" rx="10" fill="#F8F9FA"/>
  
  <!-- Phone Outline -->
  <rect x="40" y="15" width="60" height="120" rx="10" fill="white"/>
  <rect x="40" y="15" width="60" height="120" rx="10" stroke="#E1E1E8" stroke-width="2"/>
  <rect x="60" y="25" width="20" height="5" rx="2.5" fill="#E1E1E8"/>
  <circle cx="70" cy="125" r="5" stroke="#E1E1E8" stroke-width="2"/>
  
  <!-- App Screen -->
  <rect x="45" y="35" width="50" height="80" rx="5" fill="#FFFFFF"/>
  
  <!-- App Header -->
  <rect x="45" y="35" width="50" height="12" rx="5" fill="#FF5E7D"/>
  <circle cx="55" cy="41" r="4" fill="white"/>
  <path d="M65 39H85" stroke="white" stroke-width="2" stroke-linecap="round"/>
  <path d="M65 43H75" stroke="white" stroke-width="2" stroke-linecap="round"/>
  
  <!-- Group Share Screen -->
  <rect x="50" y="55" width="40" height="20" rx="5" fill="#F1F3F5"/>
  <path d="M55 65H85" stroke="#33BFFF" stroke-width="1.5" stroke-linecap="round"/>
  <path d="M55 70H75" stroke="#33BFFF" stroke-width="1.5" stroke-linecap="round"/>
  
  <!-- Share Button -->
  <rect x="60" y="85" width="20" height="8" rx="4" fill="#33BFFF"/>
  <path d="M67 89L73 89" stroke="white" stroke-width="1.5" stroke-linecap="round"/>
  <path d="M70 86L70 92" stroke="white" stroke-width="1.5" stroke-linecap="round"/>
  
  <!-- Friend Devices -->
  <rect x="120" y="25" width="50" height="35" rx="5" fill="white"/>
  <rect x="120" y="25" width="50" height="35" rx="5" stroke="#E1E1E8" stroke-width="2"/>
  <rect x="120" y="30" width="50" height="8" rx="2" fill="#33BFFF"/>
  <path d="M130 34H145" stroke="white" stroke-width="1.5" stroke-linecap="round"/>
  <circle cx="145" cy="42.5" r="3" fill="#33BFFF"/>
  <path d="M130 42.5H140" stroke="#33BFFF" stroke-width="1.5" stroke-linecap="round"/>
  <path d="M130 50H150" stroke="#1A1A2E" stroke-width="1" stroke-linecap="round"/>
  
  <rect x="130" y="75" width="40" height="60" rx="8" fill="white"/>
  <rect x="130" y="75" width="40" height="60" rx="8" stroke="#E1E1E8" stroke-width="2"/>
  <rect x="145" y="80" width="10" height="3" rx="1.5" fill="#E1E1E8"/>
  <circle cx="150" cy="128" r="3" stroke="#E1E1E8" stroke-width="1.5"/>
  <rect x="135" y="88" width="30" height="35" rx="2" fill="#33BFFF" opacity="0.1"/>
  <path d="M145 100H155" stroke="#33BFFF" stroke-width="1.5" stroke-linecap="round"/>
  <path d="M142 105H158" stroke="#33BFFF" stroke-width="1.5" stroke-linecap="round"/>
  <path d="M146 110H154" stroke="#33BFFF" stroke-width="1.5" stroke-linecap="round"/>
  
  <!-- Share Animation Effects -->
  <path d="M95 60C107 56 112 56 114 65" stroke="#33BFFF" stroke-width="2" stroke-dasharray="2 2"/>
  <path d="M95 65C110 75 115 75 120 65" stroke="#33BFFF" stroke-width="2" stroke-dasharray="2 2"/>
  <path d="M95 70C105 90 125 90 130 75" stroke="#33BFFF" stroke-width="2" stroke-dasharray="2 2"/>
  
  <!-- Invite/Share Label -->
  <circle cx="30" cy="115" r="15" fill="#33BFFF"/>
  <path d="M30 110L35 115L30 120" stroke="white" stroke-width="2" stroke-linecap="round" stroke-linejoin="round"/>
  <path d="M25 115H35" stroke="white" stroke-width="2" stroke-linecap="round"/>
  <path d="M50 115H85" stroke="#33BFFF" stroke-width="2" stroke-linecap="round"/>
  <path d="M95 115H170" stroke="#33BFFF" stroke-width="2" stroke-linecap="round"/>
</svg> 