<svg width="64" height="64" viewBox="0 0 64 64" fill="none" xmlns="http://www.w3.org/2000/svg">
  <circle cx="32" cy="32" r="30" fill="white"/>
  
  <!-- Ballot Box -->
  <rect x="16" y="20" width="32" height="32" rx="4" fill="#7B61FF" opacity="0.1"/>
  <rect x="16" y="20" width="32" height="32" rx="4" stroke="#7B61FF" stroke-width="2"/>
  <path d="M16 28H48" stroke="#7B61FF" stroke-width="2"/>
  
  <!-- Ballot Paper -->
  <rect x="24" y="12" width="16" height="24" rx="2" fill="white"/>
  <rect x="24" y="12" width="16" height="24" rx="2" stroke="#FF5E7D" stroke-width="2"/>
  <path d="M28 18H36" stroke="#FF5E7D" stroke-width="2" stroke-linecap="round"/>
  <path d="M28 24H36" stroke="#FF5E7D" stroke-width="2" stroke-linecap="round"/>
  <path d="M28 30H36" stroke="#FF5E7D" stroke-width="2" stroke-linecap="round"/>
  
  <!-- Vote Checkmark -->
  <circle cx="26" cy="36" r="2" fill="#33BFFF"/>
  <circle cx="26" cy="42" r="2" fill="#33BFFF"/>
  <circle cx="26" cy="48" r="2" fill="#33BFFF"/>
  
  <path d="M38 36L35 39L32 36" stroke="#33BFFF" stroke-width="2" stroke-linecap="round" stroke-linejoin="round"/>
  <rect x="30" y="40" width="8" height="4" rx="2" fill="#33BFFF"/>
  <path d="M34 48L38 44" stroke="#33BFFF" stroke-width="2" stroke-linecap="round"/>
  <path d="M34 44L38 48" stroke="#33BFFF" stroke-width="2" stroke-linecap="round"/>
  
  <!-- Star Rating Elements -->
  <path d="M10 16L12.5 11L15 16L20 16.5L15 19.5L16.5 24L12.5 21.5L8.5 24L10 19.5L5 16.5L10 16Z" fill="#FFA41B"/>
  <path d="M54 16L56.5 11L59 16L64 16.5L59 19.5L60.5 24L56.5 21.5L52.5 24L54 19.5L49 16.5L54 16Z" fill="#FFA41B"/>
  
  <!-- Thumbs Up Icon -->
  <path d="M52 40H56V52H52V40Z" fill="#00CC88"/>
  <path d="M44 52H52C52 52 56 52 56 48C56 44 56 40 56 40H48L44 52Z" fill="#00CC88"/>
  <path d="M44 52V44H40C40 44 40 42 42 40C44 38 44 36 44 36H48C48 36 48 40 48 40H56" stroke="#00CC88" stroke-width="2"/>
  
  <!-- Hand Casting Vote -->
  <path d="M13 45C11 45 8 45 8 48C8 50 11 52 13 52" stroke="#FF5E7D" stroke-width="2" stroke-linecap="round"/>
  <path d="M13 52C12.5 53.5 12.1 56.3 13.5 57.5C14.5 58.3 16.5 58 17.5 57" stroke="#FF5E7D" stroke-width="2" stroke-linecap="round"/>
  <path d="M17.5 57C18.5 56.6 19.6 56.3 20 57.5C20.4 58.7 19.5 60 18.5 61" stroke="#FF5E7D" stroke-width="2" stroke-linecap="round"/>
  <path d="M18.5 61C18.6 62.2 19.3 63.3 21.5 62.5C23.7 61.7 26 57.6 26 54.5" stroke="#FF5E7D" stroke-width="2" stroke-linecap="round"/>
  <path d="M26 54.5V44" stroke="#FF5E7D" stroke-width="2" stroke-linecap="round"/>
  <path d="M13 45L13 36" stroke="#FF5E7D" stroke-width="2" stroke-linecap="round"/>
</svg> 